<svg width="3867" height="1125" viewBox="0 0 3867 1125" fill="none" xmlns="http://www.w3.org/2000/svg">
<path fill-rule="evenodd" clip-rule="evenodd" d="M0 328.479V331.345L651.144 637.231L1304.62 330.319V329.551L651.144 22.5928L0 328.479ZM234.761 329.923L651.144 134.301L1067.62 329.923L651.144 525.523L234.738 329.923H234.761ZM651.144 756.044L0 454.747V566.199L651.144 868.218L1304.62 565.151V453.699L651.144 756.044ZM651.144 982.093L0 680.726V792.154L651.144 1094.24L1304.62 791.153V679.701L651.144 982.093V982.093Z" fill="white"/>
<mask id="mask0_1119_83" style="mask-type:alpha" maskUnits="userSpaceOnUse" x="1677" y="0" width="2190" height="1125">
<path d="M1677.68 0H3866.65V1125H1677.71L1677.68 0Z" fill="white"/>
</mask>
<g mask="url(#mask0_1119_83)">
<path fill-rule="evenodd" clip-rule="evenodd" d="M3717.22 561.967C3717.6 513.854 3699.6 467.411 3666.88 432.134C3651.49 415.636 3632.95 402.384 3612.36 393.159C3591.49 383.796 3568.84 379.021 3545.97 379.157C3522.44 379.157 3500.28 383.817 3479.52 393.159C3458.93 402.383 3440.4 415.635 3425.01 432.134C3392.3 467.423 3374.3 513.873 3374.69 561.99C3374.3 610.099 3392.3 656.54 3425.01 691.823C3440.4 708.314 3458.94 721.558 3479.52 730.775C3500.4 740.15 3523.05 744.932 3545.94 744.8C3569.47 744.8 3591.6 740.141 3612.38 730.775C3632.96 721.554 3651.49 708.31 3666.88 691.823C3699.59 656.537 3717.59 610.085 3717.2 561.967H3717.22ZM3866.67 561.967C3866.67 606.976 3858.35 648.701 3841.74 687.14C3825.79 724.615 3802.5 758.518 3773.25 786.851C3744.2 814.923 3710.11 837.078 3671.02 853.339C3631.93 869.624 3590.23 877.754 3545.94 877.754C3501.68 877.754 3460.14 869.624 3421.4 853.339C3383.55 837.659 3349.03 814.921 3319.68 786.338C3290.49 757.753 3267.22 723.697 3251.19 686.115C3234.58 647.676 3226.26 606.301 3226.26 561.967C3226.26 518.332 3234.74 477.307 3251.7 438.867C3268.12 401.214 3291.53 367.021 3320.71 338.109C3349.95 309.253 3384.5 286.327 3422.45 270.595C3461.56 254.249 3503.56 245.945 3545.94 246.18C3590.23 246.18 3631.91 254.333 3671.02 270.595C3710.11 286.856 3744.17 309.034 3773.25 337.083C3802.32 365.133 3825.15 398.54 3841.74 437.306C3858.35 476.095 3866.67 517.657 3866.67 561.967V561.967ZM3174.36 859.07C3161.55 864.968 3148.16 869.497 3134.41 872.583C3119.54 876.03 3104.12 877.754 3088.23 877.754C3066.64 877.832 3045.15 874.859 3024.4 868.925C3004.7 863.428 2986.45 853.678 2970.93 840.363C2955.72 827.201 2943.6 810.077 2934.59 788.947C2925.62 767.817 2921.12 742.354 2921.12 712.604V-0.0205078H3073.69V686.628C3073.69 711.555 3078.7 728.702 3088.74 738.044C3098.76 747.386 3110.71 752.068 3124.55 752.068C3141.84 752.068 3158.45 746.873 3174.36 736.483V859.07V859.07ZM2853.66 260.693L2583.79 974.366C2563.73 1027.69 2537.43 1066.13 2504.9 1089.68C2472.38 1113.21 2433.62 1124.98 2388.65 1124.98C2381.73 1124.98 2374.14 1124.47 2365.82 1123.44C2357.76 1122.45 2349.78 1120.88 2341.94 1118.76L2292.13 979.561C2303.8 985.061 2315.97 989.408 2328.48 992.537C2340.92 995.659 2352.68 997.22 2363.75 997.22C2387.28 997.22 2408.71 991.862 2428.09 981.122C2447.48 970.406 2462.34 950.487 2472.73 921.389L2493.49 861.144L2262.04 260.717H2425L2563.03 647.163L2692.79 260.717H2853.66V260.693ZM2225.72 170.349H1835.45V363.572H2220.52V494.453H1835.43V862.169H1677.71V32.1989H2225.74V170.349H2225.72Z" fill="white"/>
</g>
</svg>
